<svg xmlns="http://www.w3.org/2000/svg" width="96" height="96" viewBox="0 0 96 96" role="img" aria-label="RESBI">
  <defs>
    <linearGradient id="g" x1="12" y1="8" x2="84" y2="88" gradientUnits="userSpaceOnUse">
      <stop stop-color="#2563EB"/>
      <stop offset=".55" stop-color="#16A34A"/>
      <stop offset="1" stop-color="#F59E0B"/>
    </linearGradient>
    <filter id="s" x="-20%" y="-20%" width="140%" height="140%">
      <feDropShadow dx="0" dy="14" stdDeviation="11" flood-color="#1d4ed8" flood-opacity=".25"/>
    </filter>
  </defs>
  <rect x="9" y="9" width="78" height="78" rx="24" fill="url(#g)" filter="url(#s)"/>
  <path d="M28 63V35c0-4.4 3.6-8 8-8h15.2c9.7 0 16.8 6.6 16.8 15.3 0 6.7-4.2 12.3-10.5 14.5l11.1 15.7H56.2L46.1 58.1h-7.4v14.4H28Zm10.7-23.9v10.6h11.1c4.5 0 7.1-2.1 7.1-5.4 0-3.4-2.6-5.2-7.1-5.2H38.7Z" fill="#fff"/>
  <circle cx="67" cy="29" r="5" fill="#fff" opacity=".88"/>
</svg>
